<svg width="512" height="512" viewBox="0 0 512 512" fill="none" xmlns="http://www.w3.org/2000/svg">
<path d="M256 512C323.895 512 389.01 485.029 437.019 437.019C485.029 389.01 512 323.895 512 256C512 188.105 485.029 122.99 437.019 74.9807C389.01 26.9714 323.895 0 256 0C188.105 0 122.99 26.9714 74.9807 74.9807C26.9714 122.99 0 188.105 0 256C0 323.895 26.9714 389.01 74.9807 437.019C122.99 485.029 188.105 512 256 512ZM353.9 192L336.9 209L289.9 256L336.9 303L353.9 320L320 353.9L303 336.9L256 289.9L209 336.9L192 353.9L158.1 320L175.1 303L222.1 256L175.1 209L158.1 192L192 158.1L209 175.1L256 222.1L303 175.1L320 158.1L353.9 192Z" fill="white"/>
</svg>
