<svg width="200" height="200" viewBox="0 0 200 200" fill="none" xmlns="http://www.w3.org/2000/svg">
<g clip-path="url(#clip0_1127_10)">
<path d="M96.316 162.752L135.222 86.8423H105.263V36.8427L64.9799 113.158H96.316V162.752ZM100.018 200C86.1867 200 73.1863 197.375 61.0165 192.126C48.8464 186.877 38.2603 179.753 29.258 170.755C20.2555 161.757 13.1285 151.175 7.87713 139.011C2.62571 126.846 0 113.849 0 100.018C0 86.1867 2.62457 73.1863 7.87371 61.0165C13.1228 48.8464 20.2465 38.2603 29.2448 29.258C38.2433 20.2555 48.8248 13.1286 60.9894 7.87714C73.1538 2.62572 86.1514 0 99.9824 0C113.813 0 126.814 2.62458 138.984 7.87372C151.154 13.1229 161.74 20.2465 170.742 29.2448C179.744 38.2433 186.871 48.8248 192.123 60.9894C197.374 73.1538 200 86.1515 200 99.9824C200 113.813 197.375 126.814 192.126 138.984C186.877 151.154 179.753 161.74 170.755 170.742C161.757 179.744 151.175 186.871 139.011 192.123C126.846 197.374 113.849 200 100.018 200Z" fill="black"/>
</g>
<defs>
<clipPath id="clip0_1127_10">
<rect width="200" height="200" fill="white"/>
</clipPath>
</defs>
</svg>
