<svg width="200" height="200" viewBox="0 0 200 200" fill="none" xmlns="http://www.w3.org/2000/svg">
<path d="M100 200C126.522 200 151.957 189.464 170.711 170.711C189.464 151.957 200 126.522 200 100C200 73.4784 189.464 48.043 170.711 29.2893C151.957 10.5357 126.522 0 100 0C73.4784 0 48.043 10.5357 29.2893 29.2893C10.5357 48.043 0 73.4784 0 100C0 126.522 10.5357 151.957 29.2893 170.711C48.043 189.464 73.4784 200 100 200ZM144.141 81.6406L94.1406 131.641L87.5 138.281L80.8594 131.641L55.8594 106.641L49.2188 100L62.5 86.7578L69.1406 93.3984L87.5 111.758L130.859 68.3594L137.5 61.7188L150.742 75L144.102 81.6406H144.141Z" fill="white"/>
</svg>
