<svg width="200" height="200" viewBox="0 0 200 200" fill="none" xmlns="http://www.w3.org/2000/svg">
<path d="M100 200C126.522 200 151.957 189.464 170.711 170.711C189.464 151.957 200 126.522 200 100C200 73.4784 189.464 48.043 170.711 29.2893C151.957 10.5357 126.522 0 100 0C73.4784 0 48.043 10.5357 29.2893 29.2893C10.5357 48.043 0 73.4784 0 100C0 126.522 10.5357 151.957 29.2893 170.711C48.043 189.464 73.4784 200 100 200ZM138.242 75L131.602 81.6406L113.242 100L131.602 118.359L138.242 125L125 138.242L118.359 131.602L100 113.242L81.6406 131.602L75 138.242L61.7578 125L68.3984 118.359L86.7578 100L68.3984 81.6406L61.7578 75L75 61.7578L81.6406 68.3984L100 86.7578L118.359 68.3984L125 61.7578L138.242 75Z" fill="#0A0A0A"/>
</svg>
