<svg width="140" height="30" fill="none" xmlns="http://www.w3.org/2000/svg"><path d="M22.42 13.37a3.654 3.654 0 0 0-1.047 2.93l-.018-.018a4.343 4.343 0 0 1-4.694 4.694l.018.018A3.679 3.679 0 1 0 20 24.312l.019.018a4.343 4.343 0 0 1 4.694-4.694l-.019-.018a3.672 3.672 0 0 0 1.12-7.24 3.672 3.672 0 0 0-3.392.993h-.002Z" fill="#000"/><path d="m15.042 18.636-.019-.018A3.63 3.63 0 0 0 19 14.644l.02.018a4.345 4.345 0 0 1 4.693-4.694l-.019-.018a3.678 3.678 0 1 0-3.318-3.318l-.018-.019a4.343 4.343 0 0 1-4.694 4.694l.018.02a3.632 3.632 0 0 0-3.977 3.973l-.018-.018a4.347 4.347 0 0 1-4.694 4.694l.018.018a3.678 3.678 0 1 0 3.318 3.318l.02.018a4.342 4.342 0 0 1 4.693-4.694Z" fill="#000"/><path d="M8.34 16.629a3.652 3.652 0 0 0 1.045-2.93l.02.019A4.344 4.344 0 0 1 14.1 9.024l-.019-.018a3.677 3.677 0 1 0-3.318-3.318l-.018-.018a4.343 4.343 0 0 1-4.694 4.694l.018.018a3.672 3.672 0 0 0-2.747 6.417 3.671 3.671 0 0 0 5.02-.17H8.34Zm30.977-9.974h2.97v14.453h-2.97V6.655Zm4.652 9.505a5.248 5.248 0 1 1 5.247 5.225 5.186 5.186 0 0 1-5.247-5.225Zm7.524 0a2.28 2.28 0 1 0-2.277 2.34 2.222 2.222 0 0 0 2.277-2.34ZM66.3 11.21v9.4c0 3.325-2.594 4.73-5.227 4.73a5.063 5.063 0 0 1-4.692-2.4l2.534-1.464a2.262 2.262 0 0 0 2.257 1.247 1.973 1.973 0 0 0 2.237-2.118V19.7a3.515 3.515 0 0 1-2.89 1.287 5.03 5.03 0 0 1 0-10.057 3.518 3.518 0 0 1 2.89 1.287v-1.01l2.891.002Zm-2.89 4.75a2.4 2.4 0 1 0-2.395 2.3 2.24 2.24 0 0 0 2.395-2.3Zm4.573.2a5.247 5.247 0 1 1 5.247 5.225 5.186 5.186 0 0 1-5.247-5.225Zm7.524 0a2.28 2.28 0 1 0-2.277 2.34 2.219 2.219 0 0 0 2.277-2.34Zm4.354-7.604a1.782 1.782 0 1 1 1.782 1.782 1.8 1.8 0 0 1-1.782-1.782Zm.3 2.653h2.971v9.9h-2.975l.004-9.9Zm15.795 4.95a4.97 4.97 0 0 1-4.732 5.226 3.714 3.714 0 0 1-2.95-1.208v4.89h-2.97V11.21h2.97v.93a3.716 3.716 0 0 1 2.95-1.207 4.97 4.97 0 0 1 4.732 5.227Zm-2.97 0a2.356 2.356 0 1 0-2.355 2.415 2.26 2.26 0 0 0 2.355-2.415Zm12.135 1.979c0 2.277-1.979 3.247-4.117 3.247a4.333 4.333 0 0 1-4.257-2.356l2.573-1.465a1.627 1.627 0 0 0 1.68 1.168c.712 0 1.069-.218 1.069-.613 0-1.09-4.87-.515-4.87-3.94 0-2.16 1.821-3.247 3.88-3.247a4.33 4.33 0 0 1 3.86 2.118l-2.534 1.366a1.435 1.435 0 0 0-1.326-.87c-.515 0-.832.2-.832.553.004 1.13 4.874.375 4.874 4.039Zm10.849-6.93v9.9H113v-.93a3.387 3.387 0 0 1-2.83 1.208c-2 0-3.7-1.425-3.7-4.1v-6.077h2.97v5.642a1.627 1.627 0 0 0 1.028 1.69c.221.087.458.125.694.11 1.089 0 1.841-.633 1.841-2.04v-5.4l2.967-.002ZM133 15.03v6.078h-2.97v-5.821c0-.99-.475-1.623-1.425-1.623-.99 0-1.545.693-1.545 1.86v5.584h-2.969v-5.821c0-.99-.475-1.623-1.426-1.623-.99 0-1.544.693-1.544 1.86v5.584h-2.97v-9.9h2.97v.91a3.038 3.038 0 0 1 2.653-1.187 2.952 2.952 0 0 1 2.593 1.306 3.263 3.263 0 0 1 2.871-1.306c2.273 0 3.762 1.624 3.762 4.099Zm2.512-3.882a2.206 2.206 0 0 0 1.559-3.763 2.206 2.206 0 0 0-3.763 1.559 2.202 2.202 0 0 0 2.204 2.204Z" fill="#000"/></svg>