<svg width="200" height="200" viewBox="0 0 200 200" fill="none" xmlns="http://www.w3.org/2000/svg">
<g clip-path="url(#clip0_821_399)">
<path d="M26.6666 20.0002C26.6666 16.3183 23.6818 13.3335 19.9999 13.3335C16.318 13.3335 13.3333 16.3183 13.3333 20.0002V140C13.3333 143.682 16.318 146.667 19.9999 146.667C23.6818 146.667 26.6666 143.682 26.6666 140V20.0002Z" fill="white"/>
<path d="M26.6666 20.0002C26.6666 16.3183 23.6818 13.3335 19.9999 13.3335C16.318 13.3335 13.3333 16.3183 13.3333 20.0002V140C13.3333 143.682 16.318 146.667 19.9999 146.667C23.6818 146.667 26.6666 143.682 26.6666 140V20.0002Z" stroke="white"/>
<path d="M66.6666 40.0002C66.6666 36.3183 63.6818 33.3335 59.9999 33.3335C56.318 33.3335 53.3333 36.3183 53.3333 40.0002V160C53.3333 163.682 56.318 166.667 59.9999 166.667C63.6818 166.667 66.6666 163.682 66.6666 160V40.0002Z" fill="white"/>
<path d="M106.667 20.0002C106.667 16.3183 103.682 13.3335 99.9999 13.3335C96.318 13.3335 93.3333 16.3183 93.3333 20.0002V140C93.3333 143.682 96.318 146.667 99.9999 146.667C103.682 146.667 106.667 143.682 106.667 140V20.0002Z" fill="white"/>
<path d="M146.667 40.0002C146.667 36.3183 143.682 33.3335 140 33.3335C136.318 33.3335 133.333 36.3183 133.333 40.0002V160C133.333 163.682 136.318 166.667 140 166.667C143.682 166.667 146.667 163.682 146.667 160V40.0002Z" fill="white"/>
<path d="M19.9999 186.667C23.6818 186.667 26.6666 183.682 26.6666 180C26.6666 176.318 23.6818 173.333 19.9999 173.333C16.318 173.333 13.3333 176.318 13.3333 180C13.3333 183.682 16.318 186.667 19.9999 186.667Z" fill="white"/>
<path d="M106.667 180C106.667 183.682 103.682 186.667 99.9999 186.667C96.3181 186.667 93.3333 183.682 93.3333 180C93.3333 176.318 96.3181 173.333 99.9999 173.333C103.682 173.333 106.667 176.318 106.667 180Z" fill="white"/>
<path d="M186.667 20.0002C186.667 16.3183 183.682 13.3335 180 13.3335C176.318 13.3335 173.333 16.3183 173.333 20.0002V140C173.333 143.682 176.318 146.667 180 146.667C183.682 146.667 186.667 143.682 186.667 140V20.0002Z" fill="white"/>
<path d="M180 186.667C183.682 186.667 186.667 183.682 186.667 180C186.667 176.318 183.682 173.333 180 173.333C176.318 173.333 173.333 176.318 173.333 180C173.333 183.682 176.318 186.667 180 186.667Z" fill="white"/>
</g>
<defs>
<clipPath id="clip0_821_399">
<rect width="200" height="200" fill="white"/>
</clipPath>
</defs>
</svg>
