<svg width="200" height="200" viewBox="0 0 200 200" fill="none" xmlns="http://www.w3.org/2000/svg">
<g clip-path="url(#clip0_1162_20)">
<mask id="mask0_1162_20" style="mask-type:luminance" maskUnits="userSpaceOnUse" x="0" y="0" width="200" height="200">
<path d="M200 0H0V200H200V0Z" fill="white"/>
</mask>
<g mask="url(#mask0_1162_20)">
<path d="M26.6668 20.0002C26.6668 16.3183 23.682 13.3335 20.0001 13.3335C16.3182 13.3335 13.3335 16.3183 13.3335 20.0002V140C13.3335 143.682 16.3182 146.667 20.0001 146.667C23.682 146.667 26.6668 143.682 26.6668 140V20.0002Z" fill="black"/>
<path d="M26.6668 20.0002C26.6668 16.3183 23.682 13.3335 20.0001 13.3335C16.3182 13.3335 13.3335 16.3183 13.3335 20.0002V140C13.3335 143.682 16.3182 146.667 20.0001 146.667C23.682 146.667 26.6668 143.682 26.6668 140V20.0002Z" stroke="black"/>
<path d="M66.6668 40.0002C66.6668 36.3183 63.682 33.3335 60.0001 33.3335C56.3182 33.3335 53.3335 36.3183 53.3335 40.0002V160C53.3335 163.682 56.3182 166.667 60.0001 166.667C63.682 166.667 66.6668 163.682 66.6668 160V40.0002Z" fill="black"/>
<path d="M106.667 20.0002C106.667 16.3183 103.682 13.3335 100 13.3335C96.3182 13.3335 93.3335 16.3183 93.3335 20.0002V140C93.3335 143.682 96.3182 146.667 100 146.667C103.682 146.667 106.667 143.682 106.667 140V20.0002Z" fill="black"/>
<path d="M146.667 40.0002C146.667 36.3183 143.682 33.3335 140 33.3335C136.318 33.3335 133.333 36.3183 133.333 40.0002V160C133.333 163.682 136.318 166.667 140 166.667C143.682 166.667 146.667 163.682 146.667 160V40.0002Z" fill="black"/>
<path d="M20.0001 186.667C23.682 186.667 26.6668 183.682 26.6668 180C26.6668 176.318 23.682 173.333 20.0001 173.333C16.3182 173.333 13.3335 176.318 13.3335 180C13.3335 183.682 16.3182 186.667 20.0001 186.667Z" fill="black"/>
<path d="M106.667 180C106.667 183.682 103.682 186.667 100 186.667C96.3183 186.667 93.3335 183.682 93.3335 180C93.3335 176.318 96.3183 173.333 100 173.333C103.682 173.333 106.667 176.318 106.667 180Z" fill="black"/>
<path d="M186.667 20.0002C186.667 16.3183 183.682 13.3335 180 13.3335C176.318 13.3335 173.333 16.3183 173.333 20.0002V140C173.333 143.682 176.318 146.667 180 146.667C183.682 146.667 186.667 143.682 186.667 140V20.0002Z" fill="black"/>
<path d="M180 186.667C183.682 186.667 186.667 183.682 186.667 180C186.667 176.318 183.682 173.333 180 173.333C176.318 173.333 173.333 176.318 173.333 180C173.333 183.682 176.318 186.667 180 186.667Z" fill="black"/>
</g>
</g>
<defs>
<clipPath id="clip0_1162_20">
<rect width="200" height="200" fill="white"/>
</clipPath>
</defs>
</svg>
