<svg width="200" height="200" viewBox="0 0 200 200" fill="none" xmlns="http://www.w3.org/2000/svg">
<g clip-path="url(#clip0_1237_24)">
<mask id="mask0_1237_24" style="mask-type:luminance" maskUnits="userSpaceOnUse" x="0" y="0" width="200" height="200">
<path d="M200 0H0V200H200V0Z" fill="white"/>
</mask>
<g mask="url(#mask0_1237_24)">
<mask id="mask1_1237_24" style="mask-type:luminance" maskUnits="userSpaceOnUse" x="0" y="0" width="200" height="200">
<path d="M200 0H0V200H200V0Z" fill="white"/>
</mask>
<g mask="url(#mask1_1237_24)">
<path d="M26.6673 20.0007C26.6673 16.3188 23.6825 13.334 20.0006 13.334C16.3187 13.334 13.334 16.3188 13.334 20.0007V140C13.334 143.682 16.3187 146.667 20.0006 146.667C23.6825 146.667 26.6673 143.682 26.6673 140V20.0007Z" fill="#0A0A0A"/>
<path d="M26.6673 20.0007C26.6673 16.3188 23.6825 13.334 20.0006 13.334C16.3187 13.334 13.334 16.3188 13.334 20.0007V140C13.334 143.682 16.3187 146.667 20.0006 146.667C23.6825 146.667 26.6673 143.682 26.6673 140V20.0007Z" stroke="#0A0A0A"/>
<path d="M66.6673 40.0007C66.6673 36.3188 63.6825 33.334 60.0006 33.334C56.3187 33.334 53.334 36.3188 53.334 40.0007V160C53.334 163.682 56.3187 166.667 60.0006 166.667C63.6825 166.667 66.6673 163.682 66.6673 160V40.0007Z" fill="#0A0A0A"/>
<path d="M106.667 20.0007C106.667 16.3188 103.682 13.334 100 13.334C96.3187 13.334 93.334 16.3188 93.334 20.0007V140C93.334 143.682 96.3187 146.667 100 146.667C103.682 146.667 106.667 143.682 106.667 140V20.0007Z" fill="#0A0A0A"/>
<path d="M146.667 40.0007C146.667 36.3188 143.682 33.334 140 33.334C136.318 33.334 133.333 36.3188 133.333 40.0007V160C133.333 163.682 136.318 166.667 140 166.667C143.682 166.667 146.667 163.682 146.667 160V40.0007Z" fill="#0A0A0A"/>
<path d="M20.0006 186.667C23.6825 186.667 26.6673 183.682 26.6673 180C26.6673 176.318 23.6825 173.333 20.0006 173.333C16.3187 173.333 13.334 176.318 13.334 180C13.334 183.682 16.3187 186.667 20.0006 186.667Z" fill="#0A0A0A"/>
<path d="M106.667 180C106.667 183.682 103.682 186.667 100 186.667C96.3188 186.667 93.334 183.682 93.334 180C93.334 176.318 96.3188 173.333 100 173.333C103.682 173.333 106.667 176.318 106.667 180Z" fill="#0A0A0A"/>
<path d="M186.667 20.0007C186.667 16.3188 183.682 13.334 180 13.334C176.318 13.334 173.333 16.3188 173.333 20.0007V140C173.333 143.682 176.318 146.667 180 146.667C183.682 146.667 186.667 143.682 186.667 140V20.0007Z" fill="#0A0A0A"/>
<path d="M180 186.667C183.682 186.667 186.667 183.682 186.667 180C186.667 176.318 183.682 173.333 180 173.333C176.318 173.333 173.333 176.318 173.333 180C173.333 183.682 176.318 186.667 180 186.667Z" fill="#0A0A0A"/>
</g>
</g>
</g>
<defs>
<clipPath id="clip0_1237_24">
<rect width="200" height="200" fill="white"/>
</clipPath>
</defs>
</svg>
