<svg width="16" height="17" viewBox="0 0 16 17" fill="none" xmlns="http://www.w3.org/2000/svg">
<path fill-rule="evenodd" clip-rule="evenodd" d="M7.70607 11.4662C7.79433 11.5093 7.89393 11.5335 8 11.5335C8.14727 11.5335 8.28378 11.4851 8.39442 11.4035C8.42232 11.3838 8.44879 11.3622 8.47349 11.3388L11.8068 8.00546C12.0668 7.73879 12.0668 7.31879 11.8068 7.05879C11.5402 6.79279 11.1202 6.79279 10.8602 7.05946L8.66667 9.25806V2.86686C8.66667 2.49353 8.36667 2.2002 8 2.2002C7.62667 2.2002 7.33333 2.49353 7.33333 2.86686V9.25775L5.14016 7.05946C4.87349 6.79346 4.45349 6.79346 4.19349 7.06013C3.92682 7.32013 3.92682 7.74013 4.19349 8.00679L7.52682 11.3401C7.57806 11.3914 7.63902 11.4341 7.70607 11.4662ZM14 12.8669C14 13.9669 13.1 14.8669 12 14.8669H4C2.89333 14.8669 2 13.9669 2 12.8669V11.5335C2 11.1602 2.29333 10.8669 2.66667 10.8669C3.03333 10.8669 3.33333 11.1602 3.33333 11.5335V12.8669C3.33333 13.2335 3.62667 13.5335 4 13.5335H12C12.3667 13.5335 12.6667 13.2335 12.6667 12.8669V11.5335C12.6667 11.1602 12.96 10.8669 13.3333 10.8669C13.7 10.8669 14 11.1602 14 11.5335V12.8669Z" fill="white"/>
</svg>
