<svg width="200" height="200" viewBox="0 0 200 200" fill="none" xmlns="http://www.w3.org/2000/svg">
<path d="M85.3242 145.73L155.659 75.3944L143.155 63.0766L85.3242 120.907L56.3046 91.8874L44.0458 104.205L85.3242 145.73ZM99.9786 200C86.2761 200 73.3449 197.383 61.1847 192.15C49.0246 186.917 38.4038 179.759 29.3222 170.678C20.2407 161.596 13.0832 150.978 7.84983 138.823C2.61661 126.669 0 113.74 0 100.038C0 86.1711 2.61661 73.1577 7.84983 60.9976C13.0832 48.8375 20.2376 38.2566 29.3129 29.255C38.3884 20.2536 49.0049 13.1274 61.1626 7.87643C73.3201 2.62548 86.2517 0 99.9574 0C113.827 0 126.845 2.624 139.009 7.872C151.174 13.1198 161.756 20.2419 170.754 29.2383C179.753 38.2346 186.877 48.8136 192.126 60.9752C197.375 73.1369 200 86.1551 200 100.03C200 113.737 197.375 126.671 192.124 138.831C186.873 150.99 179.746 161.608 170.745 170.685C161.743 179.762 151.165 186.917 139.011 192.15C126.856 197.383 113.845 200 99.9786 200Z" fill="white"/>
</svg>
